<?xml version="1.0" standalone="no"?>
<!DOCTYPE svg PUBLIC "-//W3C//DTD SVG 20010904//EN"
 "http://www.w3.org/TR/2001/REC-SVG-20010904/DTD/svg10.dtd">
<svg version="1.0" xmlns="http://www.w3.org/2000/svg" 
 width="80" height="50" viewBox="0 0 1024.000000 1024.000000" fill=""
 preserveAspectRatio="xMidYMid meet">

<g transform="translate(0.000000,1024.000000) scale(0.100000,-0.100000)"
fill="white" stroke="none">
<path d="M0 5120 l0 -5120 5120 0 5120 0 0 5120 0 5120 -5120 0 -5120 0 0
-5120z m8520 2261 c7 -13 10 -415 10 -1230 0 -1317 4 -1233 -53 -1246 -42 -9
-622 -75 -658 -75 -20 0 -42 6 -48 13 -7 10 -12 174 -13 548 l-3 534 -47 -105
c-25 -58 -110 -244 -188 -415 -78 -170 -171 -377 -206 -460 -37 -84 -76 -160
-90 -172 -19 -18 -37 -23 -78 -23 -31 0 -58 5 -63 13 -6 6 -96 190 -200 407
-105 217 -217 449 -249 514 l-59 120 -5 -558 c-6 -629 2 -578 -88 -589 -26 -3
-182 -22 -346 -42 -286 -35 -301 -36 -313 -19 -19 26 -19 2456 0 2472 13 11
632 92 703 92 71 0 97 -26 167 -167 102 -204 437 -911 437 -922 0 -36 26 10
98 172 307 695 444 993 467 1017 46 48 88 58 405 95 168 20 310 37 315 40 6 2
29 4 52 4 32 1 45 -4 53 -18z m-2892 -353 c3 -17 -50 -118 -446 -836 l-205
-374 17 -36 c10 -20 37 -68 60 -107 144 -236 606 -1056 606 -1073 0 -45 -33
-52 -432 -99 -368 -43 -382 -44 -399 -26 -15 16 -262 456 -354 631 -20 39 -41
72 -46 72 -4 0 -35 -45 -68 -100 l-61 -101 0 -279 c0 -307 1 -304 -63 -315
-37 -6 -412 -50 -568 -67 -58 -6 -113 -9 -122 -5 -16 6 -17 99 -17 1230 0
1012 2 1226 13 1236 22 17 728 103 744 90 10 -9 13 -100 15 -436 l3 -425 91
173 c51 96 127 242 170 324 127 246 225 429 234 439 10 10 730 104 785 102 29
-1 41 -6 43 -18z m-2313 -1208 c0 -860 -1 -942 -18 -1023 -44 -218 -111 -339
-249 -450 -138 -110 -324 -174 -573 -198 -270 -25 -487 31 -616 160 -104 105
-139 209 -146 448 l-6 162 24 10 c20 8 603 81 647 81 8 0 12 -19 12 -61 0 -83
10 -99 65 -99 81 0 75 -68 75 921 0 689 3 879 13 887 13 11 692 101 742 99
l30 -2 0 -935z m5215 -1150 l0 -48 -47 -6 c-27 -4 -214 -27 -418 -51 -203 -25
-622 -77 -930 -115 -495 -61 -2079 -257 -3245 -400 -1441 -177 -2125 -260
-2151 -260 -28 0 -29 2 -29 45 0 28 5 47 13 50 6 2 89 14 182 25 94 11 442 54
775 95 333 41 900 111 1260 155 1003 124 1545 190 2385 294 424 53 937 116
1140 141 204 24 476 58 605 75 129 17 282 36 340 43 58 8 108 12 113 10 4 -2
7 -26 7 -53z m-110 -278 c43 -21 70 -72 70 -133 l0 -47 -63 -11 c-90 -16 -96
-15 -103 17 -10 40 -23 52 -55 52 -42 0 -69 -32 -69 -79 0 -52 15 -65 96 -85
161 -41 204 -91 204 -241 0 -95 -14 -139 -61 -190 -50 -54 -107 -75 -219 -82
-69 -3 -91 -1 -119 14 -51 27 -72 62 -78 130 -6 69 -10 66 105 79 l62 7 0 -30
c0 -38 16 -53 57 -53 51 0 83 37 83 94 0 60 -19 76 -128 109 -142 42 -172 79
-172 214 0 170 89 251 280 252 52 1 86 -4 110 -17z m-575 -122 l0 -74 -65 -11
-65 -10 -3 -316 c-2 -259 -5 -318 -16 -322 -8 -3 -46 -9 -85 -13 l-71 -7 0
320 0 319 -52 -7 c-29 -3 -54 -6 -55 -5 -7 6 -7 148 0 153 13 8 354 52 387 50
24 -2 25 -4 25 -77z m-607 -391 l2 -396 -46 -7 c-103 -14 -94 -20 -176 129
-40 74 -76 135 -80 135 -5 0 -8 -65 -8 -144 0 -80 -3 -147 -8 -150 -4 -2 -40
-8 -80 -11 l-72 -8 0 397 0 396 23 5 c12 3 44 6 72 8 l50 2 75 -138 75 -138 3
150 3 150 57 6 c31 4 62 8 67 10 40 14 40 17 43 -396z m-670 239 l-3 -73 -95
-12 c-52 -6 -96 -12 -97 -12 -2 -1 -3 -34 -3 -73 l0 -73 81 3 82 4 -6 -54 c-4
-29 -7 -65 -7 -79 0 -25 -3 -26 -77 -35 l-78 -9 0 -85 c0 -97 -14 -88 123 -75
l72 7 0 -75 0 -75 -82 -11 c-232 -32 -278 -37 -283 -33 -5 5 -7 791 -2 793 20
5 303 37 335 38 l43 1 -3 -72z m-606 -390 c2 -249 -1 -390 -7 -396 -5 -6 -42
-13 -81 -17 l-71 -7 -6 69 c-4 37 -7 95 -8 128 l0 60 -37 -75 c-21 -41 -50
-103 -64 -137 -15 -35 -33 -63 -41 -63 -7 0 -42 59 -77 131 l-65 131 -7 -49
c-3 -26 -7 -89 -7 -140 l-1 -91 -40 -6 c-22 -3 -58 -9 -80 -12 l-40 -6 0 400
0 399 46 7 c103 14 101 15 144 -78 123 -266 131 -281 140 -266 5 8 42 96 81
195 40 99 76 185 81 192 10 13 54 21 105 19 l33 -1 2 -387z m-854 215 l-3 -78
-60 -7 c-33 -4 -75 -10 -93 -13 l-32 -6 1 -75 1 -75 80 7 79 7 -3 -79 -3 -79
-75 -10 -75 -10 -3 -89 c-3 -88 -3 -88 20 -83 13 3 58 9 101 12 l77 7 0 -70
c0 -39 -4 -73 -8 -76 -9 -5 -309 -46 -341 -46 l-21 0 0 399 0 398 113 13 c61
7 135 16 162 20 93 14 86 19 83 -67z m-636 -29 c39 -20 58 -53 65 -114 7 -61
2 -66 -72 -75 -27 -4 -57 -9 -66 -11 -13 -3 -19 5 -26 33 -8 36 -11 38 -50 41
-33 2 -44 -1 -57 -20 -20 -28 -21 -92 -2 -110 8 -8 52 -24 98 -37 95 -25 152
-63 174 -117 18 -42 18 -196 0 -246 -31 -87 -100 -132 -225 -149 -66 -9 -84
-8 -131 8 -73 24 -100 63 -100 144 0 66 -3 64 103 75 l67 6 0 -29 c0 -38 16
-53 57 -53 49 0 73 29 73 89 0 42 -4 53 -29 74 -17 14 -60 32 -100 42 -131 32
-172 79 -173 197 -1 88 14 147 47 186 64 76 256 112 347 66z m-607 -374 c0
-173 -4 -332 -8 -353 -12 -59 -75 -120 -143 -142 -73 -23 -182 -18 -221 11
-41 31 -64 67 -74 115 -10 53 -11 610 -1 626 4 7 42 15 84 19 l77 7 3 -307 c3
-291 4 -308 22 -322 28 -20 43 -18 71 11 l25 24 0 305 0 305 43 5 c23 3 53 7
67 10 58 9 55 28 55 -314z m-668 -146 c1 -208 -1 -385 -5 -392 -9 -14 -153
-35 -164 -24 -4 4 -9 66 -10 137 l-3 129 -66 -144 c-39 -86 -72 -145 -80 -145
-8 0 -45 60 -84 135 l-70 135 -3 -146 -3 -146 -79 -10 -80 -9 0 397 0 396 46
7 c112 15 104 21 171 -121 33 -71 71 -152 83 -180 12 -29 26 -53 30 -53 4 0
35 69 70 153 101 245 101 245 157 252 27 4 53 8 58 10 28 9 30 -13 32 -381z
m-1017 270 c0 -4 43 -177 96 -386 53 -208 95 -380 93 -383 -2 -2 -40 -8 -83
-14 -91 -13 -87 -15 -106 66 l-12 55 -71 -7 c-40 -3 -76 -10 -80 -14 -4 -4
-15 -36 -25 -71 -19 -71 -15 -69 -134 -84 -42 -5 -48 -3 -48 13 0 10 31 151
69 312 38 162 79 337 92 389 12 52 24 98 28 102 3 4 40 11 81 16 103 13 100
13 100 6z"/>
<path d="M2088 3325 c-10 -18 -40 -166 -34 -172 7 -7 76 6 76 15 -2 29 -37
164 -42 157z"/>
</g>
</svg>
